<?xml version="1.0" standalone="no"?>
<!DOCTYPE svg PUBLIC "-//W3C//DTD SVG 20010904//EN"
 "http://www.w3.org/TR/2001/REC-SVG-20010904/DTD/svg10.dtd">
<svg version="1.0" xmlns="http://www.w3.org/2000/svg"
 width="700.000000pt" height="700.000000pt" viewBox="0 0 700.000000 700.000000"
 preserveAspectRatio="xMidYMid meet">
<metadata>
Created by potrace 1.11, written by Peter Selinger 2001-2013
</metadata>
<g transform="translate(0.000000,700.000000) scale(0.100000,-0.100000)"
fill="#000000" stroke="none">
<path d="M1080 6630 c-235 -29 -436 -194 -506 -415 l-25 -80 3 -1895 3 -1895
23 -60 c50 -132 154 -252 275 -319 136 -75 79 -70 902 -76 l740 -5 5 -470 c5
-456 6 -472 28 -530 71 -189 249 -343 447 -387 89 -20 3044 -19 3125 1 219 53
391 216 458 431 15 50 17 182 19 1526 l4 1472 -677 656 -676 656 -304 0 -304
0 0 49 0 49 -671 651 -672 651 -1066 -1 c-586 -1 -1095 -5 -1131 -9z m1100
-585 l0 -195 200 0 200 0 0 195 0 195 269 0 269 0 388 -379 c214 -208 414
-404 444 -435 l54 -56 -87 0 -87 0 0 -64 0 -64 -407 -5 c-344 -3 -417 -7 -468
-21 -90 -25 -173 -67 -237 -119 -44 -36 -66 -47 -93 -47 -35 0 -35 0 -35 -46
0 -30 -8 -60 -24 -87 -31 -55 -54 -129 -64 -202 l-7 -60 -158 -3 -158 -3 3
-637 3 -637 32 -67 c17 -37 50 -87 73 -111 36 -39 128 -95 183 -111 15 -5 17
-19 17 -111 l0 -105 -55 0 -55 0 0 -60 0 -60 55 0 55 0 0 -65 0 -65 -55 0 -55
0 0 -55 0 -55 55 0 55 0 0 -115 0 -115 -315 0 -315 0 0 150 0 150 -117 0 -116
0 4 -152 c3 -84 3 -134 1 -110 l-3 42 -110 0 -109 0 0 -40 0 -40 -120 0 -120
0 0 40 0 40 -90 0 c-89 0 -89 0 -105 30 -9 17 -18 66 -22 110 l-6 80 112 0
111 0 0 220 0 220 -107 2 -108 2 108 3 107 4 0 324 0 325 -107 2 -108 2 108 3
107 4 0 104 0 105 -107 2 -108 2 108 3 107 4 0 109 0 110 -110 0 -110 0 0 110
0 110 110 0 110 0 0 220 0 220 -107 2 -108 2 108 3 107 4 0 109 0 110 115 0
115 0 0 105 0 105 -225 0 -225 0 0 425 c0 362 2 431 15 463 21 49 52 81 100
103 37 17 76 19 578 19 l537 0 0 -195z m1910 -750 l54 -55 -57 0 -57 0 0 55
c0 30 1 55 3 55 1 0 27 -25 57 -55z m-680 -510 l0 -55 100 0 100 0 0 55 0 55
260 0 260 0 0 -60 0 -60 -45 0 -45 0 0 -105 0 -105 39 0 c37 0 40 -2 43 -32 3
-32 5 -33 51 -36 l47 -3 0 -194 0 -194 -47 -3 -48 -3 0 -195 0 -195 48 -3 47
-3 0 -110 0 -109 -90 0 -90 0 0 -99 0 -100 43 -3 42 -3 0 -110 0 -110 -42 -3
-43 -3 0 -100 0 -99 39 0 40 0 3 -112 c2 -62 1 -174 -2 -248 l-5 -135 -35 -12
c-19 -7 -89 -12 -154 -12 l-119 -1 6 66 c4 36 4 189 0 340 l-6 274 -114 0
-113 0 0 -85 0 -85 -84 0 -85 0 -3 -27 c-2 -20 -9 -29 -25 -31 -22 -3 -23 -7
-23 -113 l0 -109 -120 0 -120 0 0 110 0 110 -52 1 c-29 1 -78 4 -108 9 l-55 7
49 2 48 1 -3 103 -4 102 63 3 62 3 0 109 0 110 115 0 115 0 0 111 0 112 38 -7
c20 -3 72 -6 115 -6 l77 0 0 -85 0 -85 -85 0 -85 0 0 -105 0 -105 100 0 100 0
0 80 0 80 99 0 98 0 6 43 c3 23 3 174 0 335 l-6 292 -224 0 -223 0 -2 -112 -2
-113 -3 113 -4 112 -179 0 -180 0 0 210 0 210 -45 0 -45 0 0 200 0 200 45 0
45 0 0 75 0 76 33 14 c23 10 79 14 210 15 l177 0 0 -55z m2046 -324 c214 -208
414 -404 444 -435 l54 -56 -87 0 -87 0 0 -105 0 -105 100 0 100 0 0 95 0 95
95 -91 c52 -50 92 -95 89 -100 -3 -5 -43 -9 -90 -9 l-84 0 0 -100 0 -100 90 0
90 0 0 -110 0 -110 -90 0 -90 0 0 -105 0 -105 90 0 90 0 0 -540 0 -540 -90 0
-90 0 0 -105 0 -105 90 0 90 0 0 -110 0 -110 -90 0 -90 0 0 -105 0 -105 90 0
90 0 0 -162 c0 -90 -4 -180 -9 -201 -13 -53 -49 -102 -96 -129 l-40 -23 -662
-3 -663 -3 0 56 0 55 -60 0 -60 0 0 -55 0 -55 -385 0 -385 0 0 150 0 150 -115
0 -115 0 0 -110 0 -110 -110 0 -110 0 0 -40 0 -40 -120 0 -120 0 0 40 0 40
-91 0 -90 0 -15 35 c-8 20 -14 67 -14 115 l0 80 105 0 105 0 0 110 0 110 115
0 115 0 0 110 0 110 118 0 117 0 -3 -110 -3 -110 115 0 116 0 0 234 c0 129 3
237 8 239 4 3 84 7 179 8 l172 4 30 -46 c51 -81 117 -130 214 -161 146 -45
308 -5 415 103 62 63 99 133 112 215 11 67 13 513 3 717 l-6 137 -159 0 -158
0 2 198 3 197 158 3 157 3 0 194 0 194 -157 3 -158 3 0 195 0 195 158 3 157 3
0 194 0 194 -157 3 -158 3 -3 198 -2 197 223 0 224 0 389 -379z m-2329 -1013
c-2 -35 -3 -9 -3 57 0 66 1 94 3 63 2 -32 2 -86 0 -120z m3 -1698 l0 -130
-112 2 -113 2 108 3 107 4 0 124 c0 69 2 125 5 125 3 0 5 -58 5 -130z m227 98
c-3 -7 -5 -2 -5 12 0 14 2 19 5 13 2 -7 2 -19 0 -25z"/>
<path d="M2590 5645 l0 -195 200 0 200 0 0 195 0 195 -200 0 -200 0 0 -195z"/>
<path d="M2180 5255 l0 -195 200 0 200 0 0 195 0 195 -200 0 -200 0 0 -195z"/>
<path d="M1410 5125 l0 -105 110 0 110 0 0 105 0 105 -110 0 -110 0 0 -105z"/>
<path d="M1640 5125 l0 -105 110 0 110 0 0 105 0 105 -110 0 -110 0 0 -105z"/>
<path d="M1180 4905 l0 -105 58 0 c33 0 134 -3 225 -7 l167 -6 0 111 0 112
-225 0 -225 0 0 -105z"/>
<path d="M1640 4905 l0 -105 110 0 110 0 0 105 0 105 -110 0 -110 0 0 -105z"/>
<path d="M1180 4680 l0 -110 110 0 110 0 0 110 0 110 -110 0 -110 0 0 -110z"/>
<path d="M1632 4683 l3 -108 113 -3 112 -3 0 111 0 110 -115 0 -116 0 3 -107z"/>
<path d="M1633 4183 c4 -91 7 -190 7 -220 l0 -53 110 0 110 0 0 220 0 220
-117 0 -116 0 6 -167z"/>
<path d="M1410 3910 l0 -220 110 0 110 0 0 220 0 220 -110 0 -110 0 0 -220z"/>
<path d="M1180 3800 l0 -110 110 0 110 0 0 110 0 110 -110 0 -110 0 0 -110z"/>
<path d="M1640 3575 l0 -325 110 0 110 0 0 325 0 325 -110 0 -110 0 0 -325z"/>
<path d="M1180 3575 l0 -105 110 0 110 0 0 105 0 105 -110 0 -110 0 0 -105z"/>
<path d="M1410 3575 l0 -105 110 0 110 0 0 105 0 105 -110 0 -110 0 0 -105z"/>
<path d="M1180 3355 l0 -105 110 0 110 0 0 105 0 105 -110 0 -110 0 0 -105z"/>
<path d="M1410 3355 l0 -105 110 0 110 0 0 105 0 105 -110 0 -110 0 0 -105z"/>
<path d="M1180 3020 l0 -220 110 0 110 0 0 113 0 112 115 -3 115 -3 0 110 0
111 -225 0 -225 0 0 -220z"/>
<path d="M1640 3135 l0 -105 110 0 110 0 0 105 0 105 -110 0 -110 0 0 -105z"/>
<path d="M1630 2910 l0 -110 115 0 115 0 0 110 0 110 -115 0 -115 0 0 -110z"/>
<path d="M2260 2930 l0 -60 55 0 55 0 0 60 0 60 -55 0 -55 0 0 -60z"/>
<path d="M2260 2445 l0 -55 55 0 55 0 0 55 0 55 -55 0 -55 0 0 -55z"/>
<path d="M3410 4405 l0 -105 100 0 100 0 0 105 0 105 -100 0 -100 0 0 -105z"/>
<path d="M3830 4405 l0 -105 100 0 100 0 0 105 0 105 -100 0 -100 0 0 -105z"/>
<path d="M3620 4190 l0 -100 100 0 100 0 0 100 0 100 -100 0 -100 0 0 -100z"/>
<path d="M3830 3545 l0 -105 100 0 100 0 0 105 0 105 -100 0 -100 0 0 -105z"/>
<path d="M3830 2685 l0 -105 100 0 100 0 0 105 0 105 -100 0 -100 0 0 -105z"/>
<path d="M5570 3655 l0 -105 100 0 100 0 0 105 0 105 -100 0 -100 0 0 -105z"/>
<path d="M5360 3435 l0 -105 100 0 100 0 0 105 0 105 -100 0 -100 0 0 -105z"/>
<path d="M5360 3005 l0 -105 100 0 100 0 0 105 0 105 -100 0 -100 0 0 -105z"/>
<path d="M5780 3005 l0 -105 100 0 100 0 0 105 0 105 -100 0 -100 0 0 -105z"/>
<path d="M5570 2795 l0 -105 100 0 100 0 0 105 0 105 -100 0 -100 0 0 -105z"/>
<path d="M5780 2145 l0 -105 100 0 100 0 0 105 0 105 -100 0 -100 0 0 -105z"/>
<path d="M5570 1935 l0 -105 100 0 100 0 0 105 0 105 -100 0 -100 0 0 -105z"/>
<path d="M5360 1720 l0 -100 100 0 100 0 0 100 0 100 -100 0 -100 0 0 -100z"/>
<path d="M4210 1535 l0 -55 60 0 60 0 0 55 0 55 -60 0 -60 0 0 -55z"/>
<path d="M4700 1535 l0 -55 60 0 60 0 0 55 0 55 -60 0 -60 0 0 -55z"/>
<path d="M4330 1410 l0 -60 60 0 59 0 3 -57 3 -58 58 -3 57 -3 0 61 0 60 -60
0 -60 0 0 60 0 60 -60 0 -60 0 0 -60z"/>
<path d="M4580 1415 l0 -55 60 0 60 0 0 55 0 55 -60 0 -60 0 0 -55z"/>
<path d="M4830 1410 l0 -61 58 3 57 3 3 58 3 57 -61 0 -60 0 0 -60z"/>
<path d="M5360 1290 l0 -100 100 0 100 0 0 100 0 100 -100 0 -100 0 0 -100z"/>
<path d="M5780 1290 l0 -100 100 0 100 0 0 100 0 100 -100 0 -100 0 0 -100z"/>
<path d="M4330 1170 l0 -60 -60 0 -60 0 0 -60 0 -60 60 0 60 0 0 60 0 60 60 0
60 0 0 -60 0 -60 60 0 60 0 0 60 0 60 -60 0 -60 0 0 60 0 60 -60 0 -60 0 0
-60z"/>
<path d="M4830 1170 l0 -60 60 0 60 0 0 60 0 60 -60 0 -60 0 0 -60z"/>
<path d="M5570 1075 l0 -105 100 0 100 0 0 105 0 105 -100 0 -100 0 0 -105z"/>
<path d="M4700 1050 l0 -60 60 0 60 0 0 60 0 60 -60 0 -60 0 0 -60z"/>
</g>
</svg>
